<svg width="834" height="304" viewBox="0 0 834 304" fill="none" xmlns="http://www.w3.org/2000/svg">
<path d="M351.2 208C378.8 208 402 198 421.2 177.6C440.4 157.2 450 132.8 450 104C450 75.2 440.4 50.8 421.2 30.4C402.4 9.99999 378.8 -2.00272e-05 351.2 -2.00272e-05C324 -2.00272e-05 300.8 9.99999 281.6 30.4C262.4 50.8 252.8 75.2 252.8 104C252.8 132.8 262.4 157.2 281.6 177.6C300.8 198 324 208 351.2 208ZM72 3.99998H1.37091e-06V304H72V141.6L161.6 304H233.6V3.99998H161.6V166.4L72 3.99998ZM370 81.6C380.8 94 380.8 114 370 126.8C360 139.2 342.4 139.2 332.4 126.8C322.4 114 322.4 94 332.4 81.6C342.4 68.8 360 68.8 370 81.6ZM441.6 296V224H260.8V296H441.6ZM535.741 3.99998L483.341 60.4V152.8L535.741 96.4V304H607.741V3.99998H535.741ZM812.372 170.4C826.372 147.6 833.172 125.2 833.172 102.4C833.172 74 823.972 50 805.972 30C787.972 9.99999 765.172 -2.00272e-05 736.772 -2.00272e-05C693.572 -2.00272e-05 669.972 14 651.972 39.2V124C676.772 89.2 701.972 71.6 727.572 71.6C751.972 71.6 761.172 90 759.172 110.8C758.372 118 755.172 126 749.172 135.2L640.372 304H831.972V232H771.972L812.372 170.4Z" fill="white"/>
</svg>
